# xmcd
#
# Track frame offsets:
#	150
#	18205
#	32242
#	49970
#	66803
#	82148
#	97309
#	112615
#	129032
#	142808
#
# Disc length: 2079 seconds
#
# Revision: 1
# Processed by: cddbd v1.5.2PL0 Copyright (c) Steve Scherf et al.
# Submitted via: audiograbber 1.83.01
#
DISCID=7d081d0a
DTITLE=Texas Country Artist - Texas Country Artist 010
DYEAR=2008
DGENRE=Country
TTITLE0=Gone But Not Forgotton  - Luann
TTITLE1=Restless Wind  - Rick Stancil
TTITLE2=Robbin Trains  - David Handshaw
TTITLE3=Right Back To You  - Liz Talley
TTITLE4=Talk To Me My Woman  - Keith Mccoy
TTITLE5=The Night - Kelly Hanshaw
TTITLE6=I´m Taking My Rock  - Larry Parcell
TTITLE7=I Only Like You When I´m Drinking  - Kim Carson
TTITLE8=Tears On The Bayou  - Larry Youngblood
TTITLE9=Pride  - Kari Hhlavinka
EXTD=
EXTT0=
EXTT1=
EXTT2=
EXTT3=
EXTT4=
EXTT5=
EXTT6=
EXTT7=
EXTT8=
EXTT9=
PLAYORDER=
